<svg version="1" xmlns="http://www.w3.org/2000/svg" width="933.333" height="933.333" viewBox="0 0 700.000000 700.000000"><path d="M502 9.6c-8.7 1.6-14.2 3.9-22 9-8.2 5.4-9.5 6.6-15.2 13.6-15.6 19.2-18.2 46.9-6.5 69.3 1.7 3.3 3.4 6.2 3.7 6.5.3.3 2 2.4 3.8 4.7l3.2 4.1-14.1 24.4c-7.8 13.4-15.1 25.9-16.3 27.8-1.2 1.9-2.8 4.6-3.5 6-.8 1.4-5.7 9.7-10.9 18.5-5.1 8.8-9.8 16.7-10.2 17.6-.7 1.2.6 2.4 6.3 5.7 4 2.2 9.9 5.9 13.2 8.1 3.2 2.2 6 3.9 6.1 3.8.1-.1 12.7-21.6 27.9-47.7 15.3-26.1 27.9-47.6 28-47.8.1-.1 2.4.2 5.1.8 5 1.1 17.9 1.4 22.4.5 6.9-1.4 8.9-2 14.5-4.4 27.7-11.9 42.9-41.5 36.8-71.6-3.7-18.1-17.1-35.6-33.5-43.3-13.1-6.3-25.7-8.1-38.8-5.6zM154 101.1c-23 3.6-43.7 22-50.4 44.9-4.3 14.4-2.7 32.6 4 46 10.3 20.7 29.9 33.5 52.9 34.7 11.4.6 18.9-.9 29.2-5.8 6.6-3.1 8.1-3 11.4.8 2.4 2.8 37 35.8 37.7 36 .4.1 3-2.8 5.7-6.3 2.8-3.6 7.1-8.5 9.7-10.9 6.2-5.9 6.3-6.1 3.5-8.7-1.4-1.3-10.8-10.3-21-20.1l-18.5-17.8 2.4-5.6c8.9-20 6.3-44.1-6.7-61.8-13.7-18.8-37.6-28.9-59.9-25.4zM340 237.1c-2.5.4-6.1.9-8 1.2-19.2 3.1-42.6 16.4-57.5 32.6-13.4 14.5-23.5 34.6-27.2 53.9-4.9 26 .2 54.3 14 77.2 17.1 28.4 47.9 48.3 79.6 51.5 7.4.7 22.8.8 23.9.2.4-.3 3-.7 5.9-1.1 2.9-.3 8.9-1.8 13.5-3.2 32.1-10.1 58-35 69.4-66.5 1.4-3.9 2.7-7.8 2.9-8.7.2-.9.8-3.7 1.4-6.2 3.2-14.3 2.8-38.8-.9-48.4-.5-1.4-.8-2.6-.5-2.6.2 0-.7-3.2-2-7-12.5-36.9-44.9-65.1-82.7-72.1-7.4-1.3-25.4-1.8-31.8-.8zM628.8 309.5c-.2.2-2.3.5-4.8.9-10.4 1.4-18.4 4.6-27.6 11.1-7.7 5.5-13.1 11.9-18.4 21.8l-4.2 7.7-4.6-.5c-2.6-.2-7.8-.7-11.7-1.1-3.8-.3-8.1-.8-9.5-.9-1.4-.1-6.1-.6-10.5-.9-4.4-.4-9.6-.9-11.5-1.1-13.3-1.5-17.2-1.8-22.9-1.9l-6.5-.1-.2 4c-.6 10.5-1.5 19.3-2.3 22.8-.5 2-.6 3.9-.2 4.1.3.2 4.7.7 9.6 1.1 11.6 1.1 11.7 1.1 20 2 3.9.4 8.1.9 9.5 1 10.7 1.1 16 1.6 19 2 4.9.6 16.2 1.7 17.8 1.8.6 0 1.2.3 1.3.6.8 6.1 6 18.8 10.5 25.6 7.4 11.2 20.5 20.9 33.9 25 10.8 3.4 26.8 3 37.3-.7 20-7.2 34.6-23.2 40.7-44.6 2-7.1 2-22.1.1-30.6-4.9-20.8-21.7-39.4-41.6-45.9-6.5-2.2-22-4.3-23.2-3.2zM205 377.7c-2.9 1.3-31.3 11.1-81.7 28.2l-8.3 2.8-2.1-3.3c-3-4.9-13.4-14-20.6-18-26-14.6-58.7-7.9-77.6 15.9-14.8 18.5-18 45-8 66.3 8 17.2 23.6 30.2 41.8 34.9 7 1.8 19.9 2.1 27 .5 28.5-6.1 49-30.5 50-59.5l.3-6.9 15.3-5.3c8.5-2.9 30.3-10.3 48.5-16.5l33.2-11.3-2-5c-1.1-2.7-3.2-8.4-4.5-12.5-4.5-13.5-4.3-13.4-11.3-10.3zM397.9 482.4c-.6.7-18.5 5.3-23.3 6-2.2.4-4.2.8-4.4 1.1-.4.4 2.2 12.8 5.5 26 .8 3.3 1.7 7.1 1.9 8.5.3 1.4 2 9 3.9 17 1.8 8 3.6 15.6 3.9 17 .2 1.4.8 3.9 1.1 5.6.7 2.9.4 3.4-3.5 5.7-13.9 8.2-26.2 27.1-28.5 43.7-4.7 33 15.7 63.6 47.6 71.4 18.2 4.5 39.6-.7 53.8-12.9 20.8-17.9 27.9-44.7 18.7-70.2-1.8-5.1-8.6-16.8-11.9-20.4-10.1-11.2-27.3-20.1-40.5-21.1-1.8-.1-3.7-.7-4.1-1.3-.4-.5-2-6.4-3.4-13-1.5-6.6-4.5-19.9-6.8-29.5-4.3-18.7-4.6-20.2-5.4-24-1.6-7.6-2.1-9.4-3.1-9.7-.6-.2-1.2-.1-1.5.1z"/></svg>